<svg width="109" height="25" viewBox="0 0 109 25" fill="none" xmlns="http://www.w3.org/2000/svg">
<g clip-path="url(#clip0_9245_31569)">
<path d="M0 23.68H4.57L6.92 18.43H14.3L16.6 23.68H21.18L10.6 0.78L0 23.68ZM12.72 14.67H8.56L10.63 9.53L12.72 14.67ZM76.81 2.28H80.85V24.17L65.76 12.19V23.67H61.73V2.77L76.8 14.72V2.28H76.81ZM44.65 2.28H56.96V6.09H48.95V10.2H56.96V14.11H48.95V19.7H56.96V23.67H44.65V2.28ZM107.43 8.72C107.99 10.07 108.28 11.52 108.28 13.02C108.28 14.52 107.99 15.98 107.43 17.32C106.87 18.67 106.04 19.88 104.96 20.94C103.88 21.99 102.64 22.81 101.27 23.37C99.9 23.93 98.45 24.21 96.96 24.21C95.47 24.21 93.97 23.92 92.6 23.36C91.22 22.79 89.99 21.98 88.93 20.93C87.85 19.88 87.02 18.66 86.47 17.33C85.91 15.99 85.63 14.54 85.63 13.01C85.63 11.48 85.91 10.04 86.47 8.69C87.03 7.34 87.86 6.12 88.93 5.06C90.01 4 91.25 3.19 92.61 2.64C95.33 1.54 98.57 1.53 101.3 2.64C102.03 2.94 102.73 3.32 103.38 3.76L100.36 6.78C100.12 6.64 99.87 6.51 99.61 6.4C98.78 6.04 97.89 5.86 96.96 5.86C96.03 5.86 95.14 6.04 94.31 6.39C93.48 6.74 92.72 7.26 92.07 7.94C91.42 8.61 90.91 9.38 90.57 10.24C90.23 11.11 90.05 12.04 90.05 13.01C90.05 13.98 90.22 14.89 90.57 15.75C90.91 16.6 91.42 17.38 92.07 18.05C92.72 18.72 93.47 19.24 94.3 19.6C95.94 20.3 97.91 20.31 99.58 19.6C100.4 19.25 101.16 18.73 101.82 18.05C102.47 17.38 102.98 16.6 103.32 15.74C103.67 14.88 103.84 13.96 103.84 13.01C103.84 12.06 103.66 11.12 103.32 10.26C103.25 10.07 103.16 9.9 103.07 9.72L106.22 6.57C106.7 7.25 107.11 7.96 107.43 8.72ZM41.61 20C41.34 20.33 41.06 20.64 40.76 20.94C39.68 21.99 38.44 22.81 37.07 23.37C35.7 23.93 34.25 24.21 32.76 24.21C31.27 24.21 29.77 23.92 28.4 23.36C27.02 22.79 25.79 21.98 24.73 20.93C23.65 19.88 22.82 18.66 22.27 17.33C21.71 15.99 21.43 14.54 21.43 13.01C21.43 11.48 21.71 10.04 22.27 8.69C22.83 7.34 23.66 6.12 24.73 5.06C25.81 4 27.05 3.19 28.41 2.64C31.13 1.54 34.37 1.53 37.1 2.64C38.46 3.19 39.69 4 40.77 5.06C41.08 5.37 41.36 5.69 41.63 6.03L38.54 9.12C38.28 8.7 37.97 8.31 37.62 7.95C36.98 7.28 36.24 6.77 35.41 6.41C34.58 6.05 33.69 5.87 32.76 5.87C31.83 5.87 30.94 6.05 30.11 6.4C29.28 6.75 28.52 7.27 27.87 7.95C27.22 8.62 26.71 9.39 26.37 10.25C26.03 11.12 25.85 12.05 25.85 13.02C25.85 13.99 26.02 14.9 26.37 15.76C26.71 16.61 27.22 17.39 27.87 18.06C28.52 18.73 29.27 19.25 30.1 19.61C31.74 20.31 33.71 20.32 35.38 19.61C36.2 19.26 36.96 18.74 37.62 18.06C37.96 17.71 38.26 17.32 38.52 16.91L41.61 20Z" fill="white"/>
</g>
<defs>
<clipPath id="clip0_9245_31569">
<rect width="108.28" height="23.44" fill="white" transform="translate(0 0.78)"/>
</clipPath>
</defs>
</svg>
