<svg width="109" height="24" viewBox="0 0 109 24" fill="none" xmlns="http://www.w3.org/2000/svg">
<g clip-path="url(#clip0_9245_31573)">
<path d="M0 23.18H4.57L6.92 17.93H14.3L16.6 23.18H21.18L10.6 0.28L0 23.18ZM12.72 14.17H8.56L10.63 9.03L12.72 14.17ZM76.81 1.78H80.85V23.67L65.76 11.69V23.17H61.73V2.27L76.8 14.22V1.78H76.81ZM44.65 1.78H56.96V5.59H48.95V9.7H56.96V13.61H48.95V19.2H56.96V23.17H44.65V1.78ZM107.43 8.22C107.99 9.57 108.28 11.02 108.28 12.52C108.28 14.02 107.99 15.48 107.43 16.82C106.87 18.17 106.04 19.38 104.96 20.44C103.88 21.49 102.64 22.31 101.27 22.87C99.9 23.43 98.45 23.71 96.96 23.71C95.47 23.71 93.97 23.42 92.6 22.86C91.22 22.29 89.99 21.48 88.93 20.43C87.85 19.38 87.02 18.16 86.47 16.83C85.91 15.49 85.63 14.04 85.63 12.51C85.63 10.98 85.91 9.54 86.47 8.19C87.03 6.84 87.86 5.62 88.93 4.56C90.01 3.5 91.25 2.69 92.61 2.14C95.33 1.04 98.57 1.03 101.3 2.14C102.03 2.44 102.73 2.82 103.38 3.26L100.36 6.28C100.12 6.14 99.87 6.01 99.61 5.9C98.78 5.54 97.89 5.36 96.96 5.36C96.03 5.36 95.14 5.54 94.31 5.89C93.48 6.24 92.72 6.76 92.07 7.44C91.42 8.11 90.91 8.88 90.57 9.74C90.23 10.61 90.05 11.54 90.05 12.51C90.05 13.48 90.22 14.39 90.57 15.25C90.91 16.1 91.42 16.88 92.07 17.55C92.72 18.22 93.47 18.74 94.3 19.1C95.94 19.8 97.91 19.81 99.58 19.1C100.4 18.75 101.16 18.23 101.82 17.55C102.47 16.88 102.98 16.1 103.32 15.24C103.67 14.38 103.84 13.46 103.84 12.51C103.84 11.56 103.66 10.62 103.32 9.76C103.25 9.57 103.16 9.4 103.07 9.22L106.22 6.07C106.7 6.75 107.11 7.46 107.43 8.22ZM41.61 19.5C41.34 19.83 41.06 20.14 40.76 20.44C39.68 21.49 38.44 22.31 37.07 22.87C35.7 23.43 34.25 23.71 32.76 23.71C31.27 23.71 29.77 23.42 28.4 22.86C27.02 22.29 25.79 21.48 24.73 20.43C23.65 19.38 22.82 18.16 22.27 16.83C21.71 15.49 21.43 14.04 21.43 12.51C21.43 10.98 21.71 9.54 22.27 8.19C22.83 6.84 23.66 5.62 24.73 4.56C25.81 3.5 27.05 2.69 28.41 2.14C31.13 1.04 34.37 1.03 37.1 2.14C38.46 2.69 39.69 3.5 40.77 4.56C41.08 4.87 41.36 5.19 41.63 5.53L38.54 8.62C38.28 8.2 37.97 7.81 37.62 7.45C36.98 6.78 36.24 6.27 35.41 5.91C34.58 5.55 33.69 5.37 32.76 5.37C31.83 5.37 30.94 5.55 30.11 5.9C29.28 6.25 28.52 6.77 27.87 7.45C27.22 8.12 26.71 8.89 26.37 9.75C26.03 10.62 25.85 11.55 25.85 12.52C25.85 13.49 26.02 14.4 26.37 15.26C26.71 16.11 27.22 16.89 27.87 17.56C28.52 18.23 29.27 18.75 30.1 19.11C31.74 19.81 33.71 19.82 35.38 19.11C36.2 18.76 36.96 18.24 37.62 17.56C37.96 17.21 38.26 16.82 38.52 16.41L41.61 19.5Z" fill="#1F1F27"/>
</g>
<defs>
<clipPath id="clip0_9245_31573">
<rect width="108.28" height="23.44" fill="white" transform="translate(0 0.28)"/>
</clipPath>
</defs>
</svg>