<svg width="104" height="104" viewBox="0 0 104 104" fill="none" xmlns="http://www.w3.org/2000/svg">
<g clip-path="url(#clip0_7794_37319)">
<path d="M104 52C104 23.2812 80.7188 0 52 0C23.2812 0 0 23.2812 0 52C0 80.7188 23.2812 104 52 104C80.7188 104 104 80.7188 104 52Z" fill="white"/>
<path d="M24.39 26.73L24.74 25.82C25.01 25.98 25.28 26.04 25.55 26C25.82 25.96 26.08 25.82 26.33 25.58C26.57 25.35 26.69 25.1 26.7 24.84C26.71 24.57 26.61 24.33 26.4 24.11C26.12 23.82 25.64 23.8 24.94 24.04C24.84 24.07 24.77 24.1 24.72 24.12C23.93 24.38 23.34 24.49 22.96 24.45C22.58 24.41 22.23 24.24 21.94 23.93C21.55 23.53 21.38 23.08 21.41 22.57C21.44 22.06 21.67 21.6 22.11 21.17C22.47 20.82 22.84 20.6 23.21 20.5C23.58 20.4 23.95 20.44 24.29 20.61L23.98 21.53C23.73 21.47 23.52 21.46 23.33 21.51C23.14 21.55 22.98 21.65 22.83 21.79C22.62 22 22.5 22.22 22.48 22.45C22.46 22.68 22.54 22.89 22.73 23.08C23.01 23.37 23.55 23.38 24.35 23.1C24.41 23.08 24.46 23.06 24.5 23.05C25.2 22.8 25.74 22.7 26.12 22.74C26.51 22.78 26.85 22.95 27.16 23.27C27.61 23.73 27.82 24.24 27.79 24.79C27.76 25.34 27.5 25.86 27.01 26.34C26.59 26.74 26.16 26.98 25.71 27.04C25.26 27.11 24.82 27 24.39 26.73ZM32.55 15.63C32.14 15.57 31.76 15.58 31.39 15.65C31.02 15.72 30.68 15.86 30.35 16.06C29.72 16.45 29.34 16.98 29.2 17.63C29.06 18.28 29.19 18.93 29.59 19.57C29.98 20.19 30.49 20.58 31.13 20.75C31.77 20.92 32.38 20.81 32.96 20.44C33.3 20.23 33.59 19.96 33.82 19.65C34.05 19.34 34.23 18.97 34.36 18.55L35.02 19.61C34.88 19.95 34.69 20.26 34.45 20.53C34.21 20.8 33.92 21.05 33.57 21.27C33.13 21.55 32.68 21.73 32.21 21.82C31.75 21.91 31.28 21.9 30.83 21.8C30.38 21.7 29.96 21.51 29.57 21.23C29.19 20.95 28.86 20.6 28.6 20.18C28.34 19.76 28.16 19.32 28.08 18.85C28 18.38 28.01 17.92 28.12 17.46C28.23 17 28.42 16.58 28.7 16.2C28.98 15.82 29.33 15.5 29.76 15.23C30.1 15.02 30.45 14.86 30.82 14.77C31.19 14.68 31.58 14.64 31.99 14.66L32.53 15.64L32.55 15.63ZM37.89 15.58L38.93 18.44L37.96 18.79L35.65 12.41L37.1 11.89C37.52 11.74 37.86 11.64 38.12 11.61C38.38 11.58 38.61 11.6 38.82 11.67C39.07 11.75 39.3 11.9 39.49 12.1C39.69 12.31 39.84 12.55 39.94 12.84C40.13 13.35 40.15 13.8 40 14.18C39.85 14.56 39.56 14.87 39.09 15.1L42.34 17.21L41.17 17.64L38.01 15.55L37.89 15.59V15.58ZM37.66 14.75L37.85 14.68C38.4 14.48 38.74 14.28 38.87 14.09C39 13.9 39.01 13.64 38.89 13.31C38.76 12.96 38.58 12.75 38.33 12.67C38.08 12.6 37.7 12.65 37.18 12.84L36.99 12.91L37.65 14.74L37.66 14.75ZM51.02 12.47C51.08 12.95 51.04 13.41 50.91 13.86C50.78 14.31 50.56 14.72 50.26 15.09C49.95 15.47 49.59 15.77 49.17 16C48.75 16.23 48.31 16.37 47.83 16.43C47.34 16.49 46.87 16.45 46.41 16.32C45.95 16.19 45.53 15.98 45.15 15.69C44.77 15.4 44.46 15.05 44.23 14.64C44 14.24 43.86 13.79 43.8 13.31C43.74 12.83 43.78 12.36 43.91 11.91C44.04 11.46 44.26 11.05 44.56 10.67C44.87 10.3 45.23 10 45.64 9.77003C46.05 9.54003 46.51 9.40003 47 9.35003C47.49 9.29003 47.96 9.33003 48.41 9.45003C48.87 9.57003 49.28 9.78003 49.67 10.08C50.05 10.38 50.36 10.74 50.59 11.14C50.82 11.55 50.96 11.99 51.02 12.47ZM49.88 12.6C49.84 12.26 49.74 11.94 49.58 11.65C49.42 11.36 49.21 11.1 48.95 10.89C48.7 10.68 48.41 10.53 48.1 10.44C47.79 10.35 47.46 10.32 47.13 10.36C46.8 10.4 46.49 10.5 46.2 10.66C45.92 10.82 45.67 11.03 45.46 11.3C45.25 11.56 45.11 11.86 45.02 12.18C44.93 12.5 44.91 12.83 44.95 13.18C44.99 13.52 45.09 13.84 45.25 14.13C45.41 14.42 45.62 14.67 45.88 14.88C46.14 15.09 46.43 15.24 46.74 15.34C47.05 15.43 47.38 15.46 47.71 15.42C48.04 15.38 48.34 15.28 48.63 15.12C48.92 14.96 49.16 14.75 49.37 14.48C49.58 14.21 49.72 13.92 49.81 13.6C49.9 13.28 49.92 12.95 49.88 12.61V12.6ZM54.23 16.04L54.92 9.28003L56.02 9.39003L55.43 15.16L57.89 15.41L57.79 16.39L54.24 16.03L54.23 16.04ZM60.26 16.92L62.08 10.38L63.14 10.68L61.58 16.27L63.96 16.93L63.7 17.88L60.26 16.92ZM70.13 20.78L73.98 15.19L75.21 16.03C76.01 16.58 76.54 17.01 76.81 17.31C77.08 17.61 77.27 17.94 77.39 18.3C77.54 18.77 77.57 19.26 77.47 19.76C77.37 20.26 77.15 20.76 76.81 21.26C76.47 21.76 76.08 22.14 75.65 22.41C75.22 22.68 74.76 22.83 74.26 22.85C73.89 22.87 73.51 22.81 73.15 22.68C72.78 22.55 72.27 22.25 71.61 21.8L71.37 21.63L70.14 20.79L70.13 20.78ZM71.61 20.59L72.37 21.12C72.79 21.41 73.12 21.6 73.37 21.69C73.62 21.78 73.87 21.81 74.11 21.78C74.45 21.74 74.76 21.63 75.05 21.43C75.34 21.23 75.61 20.96 75.85 20.6C76.1 20.24 76.26 19.89 76.34 19.55C76.42 19.21 76.42 18.87 76.33 18.55C76.26 18.31 76.14 18.08 75.96 17.88C75.78 17.67 75.45 17.41 74.98 17.08L74.65 16.85L74.32 16.62L71.59 20.58L71.61 20.59ZM84.09 28.9C83.73 29.22 83.32 29.45 82.88 29.59C82.44 29.74 81.97 29.79 81.49 29.75C81.01 29.71 80.55 29.58 80.13 29.37C79.71 29.16 79.34 28.87 79.02 28.5C78.7 28.13 78.46 27.72 78.31 27.27C78.16 26.82 78.09 26.35 78.12 25.88C78.15 25.4 78.26 24.95 78.47 24.53C78.67 24.11 78.96 23.75 79.33 23.43C79.7 23.11 80.1 22.88 80.54 22.73C80.98 22.58 81.45 22.53 81.93 22.57C82.41 22.61 82.86 22.74 83.28 22.95C83.7 23.17 84.07 23.46 84.4 23.83C84.72 24.2 84.96 24.61 85.11 25.05C85.26 25.5 85.33 25.96 85.3 26.44C85.27 26.93 85.15 27.38 84.94 27.8C84.73 28.22 84.45 28.59 84.09 28.9ZM83.34 28.03C83.6 27.8 83.8 27.54 83.96 27.25C84.11 26.95 84.2 26.64 84.23 26.3C84.26 25.97 84.23 25.65 84.12 25.34C84.02 25.03 83.86 24.75 83.64 24.49C83.42 24.23 83.16 24.04 82.87 23.9C82.58 23.76 82.26 23.67 81.93 23.66C81.6 23.64 81.27 23.68 80.96 23.79C80.65 23.9 80.36 24.07 80.1 24.3C79.84 24.53 79.64 24.78 79.49 25.08C79.34 25.38 79.25 25.69 79.22 26.02C79.19 26.35 79.22 26.68 79.33 26.99C79.43 27.3 79.59 27.58 79.81 27.84C80.03 28.09 80.28 28.29 80.57 28.43C80.86 28.57 81.18 28.65 81.51 28.67C81.85 28.69 82.17 28.64 82.49 28.54C82.81 28.44 83.09 28.27 83.35 28.04L83.34 28.03ZM88.87 29.82L89.33 30.81L86.77 33.43C86.6 33.6 86.45 33.75 86.32 33.87C86.19 33.99 86.07 34.11 85.95 34.21C86.32 34.16 86.69 34.11 87.05 34.07C87.1 34.07 87.13 34.07 87.14 34.07L91 33.77L88.26 36.64C88.13 36.78 87.99 36.91 87.85 37.04C87.71 37.17 87.57 37.3 87.43 37.42C87.57 37.39 87.73 37.36 87.9 37.34C88.07 37.32 88.28 37.29 88.52 37.27L92.19 36.96L92.66 37.96L85.16 38.57L88.01 35.53C88.14 35.39 88.26 35.27 88.38 35.15C88.5 35.03 88.62 34.92 88.73 34.82C88.54 34.85 88.37 34.87 88.2 34.89C88.03 34.91 87.87 34.93 87.72 34.94L83.58 35.2L88.86 29.84L88.87 29.82ZM87.01 43.05L93.97 41.89L90.58 46.83C90.48 46.97 90.38 47.1 90.27 47.24C90.16 47.38 90.03 47.53 89.89 47.69L94.53 46.92L94.7 47.93L87.74 49.09L91.19 44.05C91.28 43.92 91.38 43.78 91.49 43.65C91.6 43.52 91.71 43.4 91.83 43.28L87.17 44.06L87 43.06L87.01 43.05ZM90.34 57.08L89.94 59.53L89.02 59.38L89.42 56.93L90.34 57.08ZM85.06 66.39L91.15 69.4L89.47 72.8L88.63 72.38L89.82 69.97L88.29 69.21L87.1 71.62L86.23 71.19L87.42 68.78L85.45 67.81L84.26 70.22L83.37 69.78L85.05 66.38L85.06 66.39ZM82.33 71.6L83.83 75.5L87.59 75.91L86.89 76.83L84.98 76.6C84.88 76.59 84.68 76.56 84.37 76.51C84.3 76.5 84.25 76.49 84.22 76.48C84.27 76.58 84.31 76.68 84.36 76.8C84.41 76.91 84.46 77.04 84.52 77.18L85.22 79.01L84.54 79.91L83.18 76.38L79.04 75.92L79.78 74.95L82 75.21C82 75.21 82.02 75.21 82.04 75.21C82.3 75.25 82.54 75.29 82.77 75.33C82.72 75.22 82.67 75.11 82.61 75C82.56 74.88 82.51 74.76 82.46 74.63L81.63 72.51L82.34 71.58L82.33 71.6ZM78.61 80.59L76.57 78.32L77.34 77.63L81.88 82.68L80.64 83.8C80.27 84.13 79.98 84.35 79.77 84.47C79.56 84.59 79.35 84.66 79.14 84.68C78.88 84.7 78.61 84.66 78.34 84.54C78.07 84.42 77.83 84.24 77.61 84C77.39 83.76 77.24 83.5 77.15 83.22C77.06 82.94 77.04 82.67 77.09 82.41C77.14 82.2 77.23 82 77.37 81.81C77.51 81.62 77.76 81.35 78.13 81.02L78.29 80.87L78.6 80.59H78.61ZM79.16 81.31L78.95 81.5C78.49 81.91 78.24 82.23 78.17 82.47C78.1 82.71 78.19 82.95 78.41 83.2C78.65 83.47 78.9 83.59 79.16 83.55C79.42 83.51 79.77 83.3 80.2 82.91L80.41 82.72L79.15 81.31H79.16ZM72.18 81.86L75.76 87.63L74.82 88.21L71.76 83.28L69.66 84.58L69.14 83.74L72.18 81.86ZM61.87 90.32C61.71 89.87 61.64 89.41 61.66 88.94C61.68 88.47 61.8 88.02 62.02 87.59C62.24 87.15 62.52 86.78 62.87 86.46C63.22 86.14 63.63 85.9 64.08 85.74C64.54 85.58 65.01 85.5 65.49 85.52C65.97 85.54 66.42 85.65 66.86 85.85C67.3 86.05 67.68 86.32 67.99 86.66C68.3 87 68.54 87.4 68.71 87.86C68.87 88.32 68.94 88.78 68.92 89.24C68.9 89.7 68.78 90.16 68.57 90.59C68.36 91.02 68.07 91.4 67.72 91.71C67.37 92.02 66.96 92.26 66.49 92.43C66.03 92.6 65.56 92.67 65.09 92.65C64.62 92.63 64.16 92.52 63.72 92.32C63.28 92.11 62.9 91.84 62.58 91.49C62.26 91.14 62.03 90.75 61.86 90.3L61.87 90.32ZM62.95 89.93C63.07 90.25 63.23 90.54 63.46 90.79C63.68 91.04 63.94 91.24 64.25 91.39C64.55 91.54 64.86 91.62 65.18 91.64C65.5 91.66 65.83 91.61 66.14 91.5C66.45 91.39 66.73 91.22 66.97 91C67.21 90.78 67.4 90.52 67.54 90.21C67.68 89.91 67.76 89.59 67.77 89.26C67.78 88.93 67.73 88.6 67.61 88.27C67.49 87.95 67.33 87.66 67.11 87.42C66.89 87.17 66.63 86.98 66.33 86.83C66.03 86.68 65.71 86.6 65.39 86.58C65.06 86.56 64.74 86.61 64.43 86.72C64.12 86.83 63.84 87 63.61 87.22C63.37 87.44 63.18 87.7 63.04 88.01C62.9 88.32 62.82 88.64 62.81 88.97C62.8 89.3 62.85 89.63 62.96 89.95L62.95 89.93ZM57.26 90.71L56.92 87.69L57.95 87.57L58.71 94.32L57.18 94.49C56.73 94.54 56.38 94.55 56.13 94.52C55.88 94.49 55.65 94.42 55.46 94.3C55.23 94.16 55.05 93.97 54.9 93.72C54.76 93.47 54.67 93.2 54.63 92.89C54.57 92.35 54.65 91.91 54.88 91.58C55.11 91.25 55.47 91.02 55.98 90.9L53.31 88.09L54.55 87.95L57.13 90.72H57.25L57.26 90.71ZM57.29 91.57L57.09 91.59C56.51 91.66 56.13 91.77 55.96 91.92C55.79 92.07 55.72 92.33 55.75 92.67C55.79 93.04 55.92 93.29 56.15 93.42C56.37 93.55 56.76 93.58 57.31 93.52L57.51 93.5L57.29 91.56V91.57ZM51.04 88.04L50.54 94.81L46.76 94.53L46.83 93.6L49.51 93.8L49.64 92.1L46.96 91.9L47.03 90.93L49.71 91.13L49.87 88.94L47.19 88.74L47.26 87.75L51.04 88.03V88.04ZM35.82 90.62L38.01 85.19L39.03 85.6L36.84 91.03L38.51 91.71L38.16 92.58L33.8 90.82L34.15 89.95L35.81 90.62H35.82ZM34.18 83.41L30.38 89.04L29.46 88.42L30.86 86.34L28.09 84.47L26.69 86.55L25.78 85.93L29.58 80.3L30.49 80.92L28.64 83.65L31.41 85.52L33.26 82.79L34.18 83.41ZM27.27 78.22L22.38 82.93L19.75 80.2L20.43 79.55L22.29 81.49L23.52 80.31L21.66 78.37L22.36 77.7L24.22 79.64L25.8 78.12L23.94 76.18L24.65 75.49L27.28 78.22H27.27ZM19.35 70.3L18.6 69.69C18.84 69.48 18.98 69.24 19.02 68.97C19.06 68.7 19.02 68.41 18.86 68.1C18.72 67.81 18.52 67.61 18.27 67.52C18.02 67.43 17.76 67.45 17.48 67.58C17.12 67.75 16.95 68.21 16.95 68.94C16.95 69.04 16.95 69.12 16.95 69.18C16.95 70.01 16.87 70.61 16.71 70.96C16.55 71.31 16.28 71.58 15.9 71.77C15.4 72.01 14.92 72.04 14.44 71.85C13.97 71.66 13.6 71.29 13.33 70.75C13.11 70.3 13.02 69.88 13.04 69.49C13.07 69.1 13.21 68.77 13.48 68.5L14.26 69.08C14.13 69.3 14.05 69.5 14.03 69.69C14.01 69.88 14.05 70.07 14.14 70.26C14.27 70.53 14.44 70.71 14.66 70.8C14.88 70.89 15.1 70.88 15.33 70.76C15.7 70.58 15.87 70.07 15.85 69.23C15.85 69.17 15.85 69.11 15.85 69.08C15.84 68.34 15.91 67.79 16.06 67.44C16.21 67.09 16.49 66.81 16.89 66.62C17.47 66.34 18.02 66.3 18.53 66.5C19.05 66.7 19.46 67.11 19.76 67.73C20.01 68.25 20.1 68.73 20.02 69.18C19.94 69.63 19.71 70.01 19.31 70.33L19.35 70.3ZM17.65 63.16L11.05 64.75L10.79 63.68L13.23 63.09L12.45 59.84L10.01 60.43L9.74999 59.36L16.35 57.77L16.61 58.84L13.4 59.61L14.18 62.86L17.39 62.09L17.65 63.16ZM12.69 47.71C13.17 47.71 13.63 47.82 14.05 48C14.47 48.18 14.86 48.46 15.19 48.81C15.52 49.16 15.77 49.56 15.94 50.01C16.11 50.45 16.19 50.91 16.19 51.4C16.19 51.89 16.08 52.35 15.9 52.79C15.71 53.23 15.45 53.62 15.11 53.95C14.77 54.29 14.38 54.55 13.95 54.72C13.52 54.89 13.06 54.97 12.57 54.97C12.08 54.97 11.63 54.86 11.2 54.68C10.77 54.49 10.39 54.22 10.06 53.87C9.72999 53.52 9.47999 53.12 9.30999 52.68C9.13999 52.24 9.05999 51.77 9.06999 51.28C9.06999 50.79 9.16999 50.33 9.35999 49.9C9.53999 49.47 9.80999 49.08 10.15 48.74C10.5 48.4 10.89 48.14 11.32 47.97C11.75 47.8 12.21 47.71 12.69 47.72V47.71ZM12.67 48.86C12.33 48.86 12 48.91 11.69 49.03C11.38 49.15 11.1 49.33 10.86 49.56C10.62 49.79 10.43 50.05 10.3 50.35C10.17 50.65 10.1 50.97 10.09 51.3C10.09 51.63 10.14 51.95 10.26 52.26C10.38 52.56 10.56 52.84 10.8 53.07C11.03 53.31 11.3 53.49 11.61 53.62C11.92 53.75 12.24 53.82 12.59 53.82C12.93 53.82 13.26 53.77 13.57 53.65C13.88 53.53 14.15 53.36 14.4 53.13C14.65 52.9 14.83 52.63 14.96 52.34C15.09 52.04 15.16 51.72 15.17 51.39C15.17 51.06 15.12 50.74 15 50.44C14.88 50.14 14.7 49.87 14.46 49.63C14.22 49.39 13.95 49.21 13.65 49.08C13.34 48.95 13.02 48.88 12.68 48.88L12.67 48.86ZM13.93 43.26L16.89 43.99L16.64 44.99L10.05 43.35L10.45 41.73C10.57 41.25 10.68 40.9 10.79 40.69C10.9 40.48 11.03 40.3 11.2 40.16C11.4 39.99 11.65 39.88 11.94 39.83C12.23 39.78 12.53 39.79 12.84 39.87C13.15 39.95 13.43 40.08 13.66 40.26C13.89 40.44 14.06 40.66 14.16 40.9C14.24 41.1 14.27 41.32 14.27 41.56C14.27 41.8 14.2 42.16 14.08 42.64L14.03 42.85L13.93 43.26ZM13.07 42.97L13.14 42.7C13.29 42.11 13.32 41.69 13.24 41.46C13.16 41.23 12.96 41.07 12.63 40.99C12.28 40.9 12.01 40.95 11.81 41.12C11.61 41.3 11.44 41.67 11.3 42.23L11.23 42.5L13.07 42.96V42.97ZM18.21 33.19L19.49 31.06L20.29 31.54L19.01 33.67L18.21 33.19Z" fill="#515167"/>
</g>
<defs>
<clipPath id="clip0_7794_37319">
<rect width="104" height="104" fill="white"/>
</clipPath>
</defs>
</svg>
